<?xml version="1.0"?>
<svg xmlns="http://www.w3.org/2000/svg" viewBox="0 0 50 50">
    <path style="line-height:normal;text-indent:0;text-align:start;text-decoration-line:none;text-decoration-style:solid;text-decoration-color:#000;text-transform:none;block-progression:tb;isolation:auto;mix-blend-mode:normal" d="M 6 4 L 6 39 L 7 39 C 16.733333 39 24.552734 42.894531 24.552734 42.894531 L 25 43.117188 L 25.447266 42.894531 C 25.447266 42.894531 33.266667 39 43 39 L 44 39 L 44 4 L 43 4 C 33.160341 4 25.642079 7.6218492 25 7.9355469 C 24.357921 7.6218492 16.839659 4 7 4 L 6 4 z M 8 6.0898438 C 16.244795 6.3254498 22.653699 9.0479802 24 9.65625 L 24 40.503906 C 21.872898 39.585697 15.887188 37.302104 8 37.087891 L 8 6.0898438 z M 42 6.0898438 L 42 37.087891 C 34.112812 37.302104 28.127102 39.585697 26 40.503906 L 26 9.65625 C 27.346301 9.0479802 33.755205 6.3254498 42 6.0898438 z M 2 9 L 2 43 L 3 43 C 15.794872 43 24.59375 46.914062 24.59375 46.914062 L 25 47.09375 L 25.40625 46.914062 C 25.40625 46.914062 34.205128 43 47 43 L 48 43 L 48 9 L 46 9 L 46 41.070312 C 33.798944 41.276157 25.556846 44.711648 25 44.953125 C 24.443154 44.711648 16.201056 41.276157 4 41.070312 L 4 9 L 2 9 z" font-weight="400" font-family="sans-serif" white-space="normal" overflow="visible"/>
</svg>
